<svg width="181" height="19" viewBox="0 0 181 19" fill="none" xmlns="http://www.w3.org/2000/svg">
<path d="M8.95703 18H5.32422V3.89062H0.671875V0.867188H13.6094V3.89062H8.95703V18ZM30.2852 18H26.6641V10.6055H19.8789V18H16.2461V0.867188H19.8789V7.58203H26.6641V0.867188H30.2852V18ZM44.4883 18H34.6211V0.867188H44.4883V3.84375H38.2539V7.60547H44.0547V10.582H38.2539V15H44.4883V18ZM51.6484 18H48.0742V0.867188H57.8945V3.84375H51.6484V8.26172H57.4609V11.2266H51.6484V18ZM76.7969 9.41016C76.7969 12.2461 76.0938 14.4258 74.6875 15.9492C73.2812 17.4727 71.2656 18.2344 68.6406 18.2344C66.0156 18.2344 64 17.4727 62.5938 15.9492C61.1875 14.4258 60.4844 12.2383 60.4844 9.38672C60.4844 6.53516 61.1875 4.35938 62.5938 2.85938C64.0078 1.35156 66.0312 0.597656 68.6641 0.597656C71.2969 0.597656 73.3086 1.35547 74.6992 2.87109C76.0977 4.38672 76.7969 6.56641 76.7969 9.41016ZM64.293 9.41016C64.293 11.3242 64.6562 12.7656 65.3828 13.7344C66.1094 14.7031 67.1953 15.1875 68.6406 15.1875C71.5391 15.1875 72.9883 13.2617 72.9883 9.41016C72.9883 5.55078 71.5469 3.62109 68.6641 3.62109C67.2188 3.62109 66.1289 4.10938 65.3945 5.08594C64.6602 6.05469 64.293 7.49609 64.293 9.41016ZM94.1992 18H90.0508L86.0664 11.5195L82.082 18H78.1914L83.875 9.16406L78.5547 0.867188H82.5625L86.2539 7.03125L89.875 0.867188H93.7891L88.4102 9.36328L94.1992 18ZM110.207 18H106.059L102.074 11.5195L98.0898 18H94.1992L99.8828 9.16406L94.5625 0.867188H98.5703L102.262 7.03125L105.883 0.867188H109.797L104.418 9.36328L110.207 18ZM122.477 13.2422C122.477 14.7891 121.918 16.0078 120.801 16.8984C119.691 17.7891 118.145 18.2344 116.16 18.2344C114.332 18.2344 112.715 17.8906 111.309 17.2031V13.8281C112.465 14.3438 113.441 14.707 114.238 14.918C115.043 15.1289 115.777 15.2344 116.441 15.2344C117.238 15.2344 117.848 15.082 118.27 14.7773C118.699 14.4727 118.914 14.0195 118.914 13.418C118.914 13.082 118.82 12.7852 118.633 12.5273C118.445 12.2617 118.168 12.0078 117.801 11.7656C117.441 11.5234 116.703 11.1367 115.586 10.6055C114.539 10.1133 113.754 9.64062 113.23 9.1875C112.707 8.73438 112.289 8.20703 111.977 7.60547C111.664 7.00391 111.508 6.30078 111.508 5.49609C111.508 3.98047 112.02 2.78906 113.043 1.92188C114.074 1.05469 115.496 0.621094 117.309 0.621094C118.199 0.621094 119.047 0.726562 119.852 0.9375C120.664 1.14844 121.512 1.44531 122.395 1.82812L121.223 4.65234C120.309 4.27734 119.551 4.01562 118.949 3.86719C118.355 3.71875 117.77 3.64453 117.191 3.64453C116.504 3.64453 115.977 3.80469 115.609 4.125C115.242 4.44531 115.059 4.86328 115.059 5.37891C115.059 5.69922 115.133 5.98047 115.281 6.22266C115.43 6.45703 115.664 6.6875 115.984 6.91406C116.312 7.13281 117.082 7.53125 118.293 8.10938C119.895 8.875 120.992 9.64453 121.586 10.418C122.18 11.1836 122.477 12.125 122.477 13.2422ZM132.191 18H128.559V3.89062H123.906V0.867188H136.844V3.89062H132.191V18ZM153.426 0.867188V11.9531C153.426 13.2188 153.141 14.3281 152.57 15.2812C152.008 16.2344 151.191 16.9648 150.121 17.4727C149.051 17.9805 147.785 18.2344 146.324 18.2344C144.121 18.2344 142.41 17.6719 141.191 16.5469C139.973 15.4141 139.363 13.8672 139.363 11.9062V0.867188H142.984V11.3555C142.984 12.6758 143.25 13.6445 143.781 14.2617C144.312 14.8789 145.191 15.1875 146.418 15.1875C147.605 15.1875 148.465 14.8789 148.996 14.2617C149.535 13.6367 149.805 12.6602 149.805 11.332V0.867188H153.426ZM161.195 18H157.621V0.867188H167.441V3.84375H161.195V8.26172H167.008V11.2266H161.195V18ZM174.367 18H170.793V0.867188H180.613V3.84375H174.367V8.26172H180.18V11.2266H174.367V18Z" fill="white"/>
</svg>
